<svg width="850" height="80" viewBox="0 0 808.496 69.239" xmlns="http://www.w3.org/2000/svg"><g id="svgGroup" stroke-linecap="round" fill-rule="nonzero" font-size="9pt" stroke="#7d7a7a" stroke-width="0.25mm" fill="#000" style="stroke:#7d7a7a;stroke-width:0.25mm;fill:#000"><path d="M 695.361 62.5 L 695.361 54.688 L 708.545 54.688 L 708.545 9.522 L 695.361 9.522 L 695.361 1.709 L 727.1 1.709 L 750 42.237 L 771.289 1.709 L 803.027 1.709 L 803.027 9.522 L 789.941 9.522 L 789.941 54.688 L 803.027 54.688 L 803.027 62.5 L 767.627 62.5 L 767.627 54.688 L 778.857 54.688 L 778.857 9.082 L 752.637 59.034 L 746.729 59.034 L 719.629 10.645 L 719.629 54.688 L 730.762 54.688 L 730.762 62.5 L 695.361 62.5 Z M 600.781 62.5 L 600.781 54.688 L 613.965 54.688 L 613.965 9.522 L 600.781 9.522 L 600.781 1.709 L 673.389 1.709 L 673.389 20.752 L 662.402 20.752 L 662.402 9.522 L 625.439 9.522 L 625.439 28.76 L 649.951 28.76 L 649.951 34.864 L 625.439 34.864 L 625.439 54.688 L 662.402 54.688 L 662.402 43.457 L 673.389 43.457 L 673.389 62.5 L 600.781 62.5 Z M 0 62.5 L 0 44.922 L 10.01 44.922 A 45.507 45.507 0 0 0 18.416 50.986 A 38.996 38.996 0 0 0 23.877 53.492 Q 31.25 56.202 39.307 56.202 A 31.477 31.477 0 0 0 43.076 55.985 A 24.904 24.904 0 0 0 45.752 55.518 Q 48.682 54.834 50.83 53.638 A 12.373 12.373 0 0 0 52.582 52.469 A 9.014 9.014 0 0 0 54.175 50.83 A 6.123 6.123 0 0 0 55.124 48.998 A 5.467 5.467 0 0 0 55.371 47.364 A 6.398 6.398 0 0 0 54.046 43.465 A 7.875 7.875 0 0 0 54.004 43.409 A 8.386 8.386 0 0 0 52.639 42.01 Q 51.429 41.013 49.634 40.137 A 25.427 25.427 0 0 0 47.141 39.093 Q 45.789 38.604 44.202 38.169 A 54.092 54.092 0 0 0 41.919 37.598 A 70.632 70.632 0 0 0 38.114 36.847 Q 35.991 36.485 33.573 36.182 A 137.514 137.514 0 0 0 30.566 35.84 Q 24.283 35.204 19.522 33.904 A 42.743 42.743 0 0 1 17.432 33.277 A 40.801 40.801 0 0 1 13.354 31.704 Q 10.613 30.463 8.569 28.955 Q 5.127 26.416 3.54 23.291 A 14.366 14.366 0 0 1 1.953 16.7 A 11.395 11.395 0 0 1 3.274 11.418 A 13.99 13.99 0 0 1 3.809 10.474 A 14.862 14.862 0 0 1 6.468 7.312 A 20.54 20.54 0 0 1 9.326 5.152 Q 12.624 3.063 17.385 1.707 A 46.183 46.183 0 0 1 18.457 1.416 Q 23.472 0.118 29.965 0.01 A 71.556 71.556 0 0 1 31.152 0 A 46.579 46.579 0 0 1 35.533 0.198 A 36.222 36.222 0 0 1 38.843 0.66 A 40.299 40.299 0 0 1 43.194 1.724 A 33.844 33.844 0 0 1 45.288 2.442 A 32.597 32.597 0 0 1 49.782 4.541 A 29.214 29.214 0 0 1 50.732 5.103 A 47.182 47.182 0 0 1 55.42 8.399 L 55.42 1.709 L 66.406 1.709 L 66.406 19.287 L 55.42 19.287 A 19.021 19.021 0 0 0 52.728 15.818 A 22.413 22.413 0 0 0 51.611 14.746 A 24.092 24.092 0 0 0 47.335 11.705 A 27.626 27.626 0 0 0 46.216 11.109 A 30.326 30.326 0 0 0 40.886 9.045 A 34.746 34.746 0 0 0 39.551 8.692 A 31.721 31.721 0 0 0 32.475 7.816 A 35.311 35.311 0 0 0 31.982 7.813 A 38.783 38.783 0 0 0 28.542 7.958 Q 26.846 8.109 25.358 8.418 A 22.498 22.498 0 0 0 24.683 8.57 Q 22.03 9.207 20.105 10.156 A 14.333 14.333 0 0 0 19.409 10.523 A 13.244 13.244 0 0 0 17.964 11.458 Q 16.882 12.268 16.211 13.184 A 6.439 6.439 0 0 0 15.557 14.274 Q 15.229 14.981 15.157 15.676 A 3.777 3.777 0 0 0 15.137 16.065 A 6.741 6.741 0 0 0 16.089 19.507 Q 16.811 20.748 18.377 21.849 A 14.206 14.206 0 0 0 19.458 22.535 Q 21.875 23.926 26.025 25.025 Q 28.863 25.776 32.749 26.379 A 119.74 119.74 0 0 0 36.572 26.905 A 144.714 144.714 0 0 1 42.899 27.829 Q 47.827 28.669 51.611 29.737 A 49.237 49.237 0 0 1 55.735 31.087 Q 59.011 32.333 61.328 33.863 A 17.738 17.738 0 0 1 64.044 36.041 A 12.642 12.642 0 0 1 66.553 39.478 Q 68.115 42.676 68.115 46.68 Q 68.115 49.707 66.479 52.784 A 15.178 15.178 0 0 1 63.935 56.23 A 20.218 20.218 0 0 1 61.499 58.35 Q 58.424 60.64 53.842 62.145 A 39.534 39.534 0 0 1 53.027 62.403 Q 47.9 63.965 40.967 63.965 A 60.89 60.89 0 0 1 34.147 63.595 A 54.285 54.285 0 0 1 32.642 63.404 Q 28.662 62.842 24.976 61.744 A 52.569 52.569 0 0 1 17.822 59.034 A 58.844 58.844 0 0 1 10.986 55.274 L 10.986 62.5 L 0 62.5 Z M 144.727 62.5 L 144.727 44.922 L 154.736 44.922 A 45.507 45.507 0 0 0 163.142 50.986 A 38.996 38.996 0 0 0 168.604 53.492 Q 175.977 56.202 184.033 56.202 A 31.477 31.477 0 0 0 187.803 55.985 A 24.904 24.904 0 0 0 190.479 55.518 Q 193.408 54.834 195.557 53.638 A 12.373 12.373 0 0 0 197.308 52.469 A 9.014 9.014 0 0 0 198.901 50.83 A 6.123 6.123 0 0 0 199.851 48.998 A 5.467 5.467 0 0 0 200.098 47.364 A 6.398 6.398 0 0 0 198.773 43.465 A 7.875 7.875 0 0 0 198.73 43.409 A 8.386 8.386 0 0 0 197.366 42.01 Q 196.155 41.013 194.36 40.137 A 25.427 25.427 0 0 0 191.868 39.093 Q 190.516 38.604 188.928 38.169 A 54.092 54.092 0 0 0 186.646 37.598 A 70.632 70.632 0 0 0 182.84 36.847 Q 180.717 36.485 178.3 36.182 A 137.514 137.514 0 0 0 175.293 35.84 Q 169.01 35.204 164.249 33.904 A 42.743 42.743 0 0 1 162.158 33.277 A 40.801 40.801 0 0 1 158.081 31.704 Q 155.34 30.463 153.296 28.955 Q 149.854 26.416 148.267 23.291 A 14.366 14.366 0 0 1 146.68 16.7 A 11.395 11.395 0 0 1 148.001 11.418 A 13.99 13.99 0 0 1 148.535 10.474 A 14.862 14.862 0 0 1 151.194 7.312 A 20.54 20.54 0 0 1 154.053 5.152 Q 157.35 3.063 162.112 1.707 A 46.183 46.183 0 0 1 163.184 1.416 Q 168.198 0.118 174.691 0.01 A 71.556 71.556 0 0 1 175.879 0 A 46.579 46.579 0 0 1 180.26 0.198 A 36.222 36.222 0 0 1 183.569 0.66 A 40.299 40.299 0 0 1 187.92 1.724 A 33.844 33.844 0 0 1 190.015 2.442 A 32.597 32.597 0 0 1 194.509 4.541 A 29.214 29.214 0 0 1 195.459 5.103 A 47.182 47.182 0 0 1 200.146 8.399 L 200.146 1.709 L 211.133 1.709 L 211.133 19.287 L 200.146 19.287 A 19.021 19.021 0 0 0 197.455 15.818 A 22.413 22.413 0 0 0 196.338 14.746 A 24.092 24.092 0 0 0 192.062 11.705 A 27.626 27.626 0 0 0 190.942 11.109 A 30.326 30.326 0 0 0 185.613 9.045 A 34.746 34.746 0 0 0 184.277 8.692 A 31.721 31.721 0 0 0 177.202 7.816 A 35.311 35.311 0 0 0 176.709 7.813 A 38.783 38.783 0 0 0 173.269 7.958 Q 171.572 8.109 170.085 8.418 A 22.498 22.498 0 0 0 169.409 8.57 Q 166.756 9.207 164.831 10.156 A 14.333 14.333 0 0 0 164.136 10.523 A 13.244 13.244 0 0 0 162.69 11.458 Q 161.609 12.268 160.938 13.184 A 6.439 6.439 0 0 0 160.284 14.274 Q 159.955 14.981 159.883 15.676 A 3.777 3.777 0 0 0 159.863 16.065 A 6.741 6.741 0 0 0 160.815 19.507 Q 161.538 20.748 163.104 21.849 A 14.206 14.206 0 0 0 164.185 22.535 Q 166.602 23.926 170.752 25.025 Q 173.589 25.776 177.476 26.379 A 119.74 119.74 0 0 0 181.299 26.905 A 144.714 144.714 0 0 1 187.625 27.829 Q 192.554 28.669 196.338 29.737 A 49.237 49.237 0 0 1 200.462 31.087 Q 203.737 32.333 206.055 33.863 A 17.738 17.738 0 0 1 208.771 36.041 A 12.642 12.642 0 0 1 211.279 39.478 Q 212.842 42.676 212.842 46.68 Q 212.842 49.707 211.206 52.784 A 15.178 15.178 0 0 1 208.661 56.23 A 20.218 20.218 0 0 1 206.226 58.35 Q 203.15 60.64 198.568 62.145 A 39.534 39.534 0 0 1 197.754 62.403 Q 192.627 63.965 185.693 63.965 A 60.89 60.89 0 0 1 178.873 63.595 A 54.285 54.285 0 0 1 177.368 63.404 Q 173.389 62.842 169.702 61.744 A 52.569 52.569 0 0 1 162.549 59.034 A 58.844 58.844 0 0 1 155.713 55.274 L 155.713 62.5 L 144.727 62.5 Z M 536.23 62.5 L 505.859 9.522 L 494.238 9.522 L 494.238 1.709 L 533.203 1.709 L 533.203 9.522 L 519.092 9.522 L 542.188 52.295 L 565.527 9.522 L 551.563 9.522 L 551.563 1.709 L 588.281 1.709 L 588.281 9.522 L 577.295 9.522 L 546.777 62.5 L 536.23 62.5 Z M 291.797 7.373 L 291.797 1.709 L 302.881 1.709 L 302.881 19.287 L 291.797 19.287 A 18.659 18.659 0 0 0 289.117 15.967 A 22.585 22.585 0 0 0 287.695 14.673 Q 285.156 12.549 281.934 11.036 Q 278.711 9.522 274.902 8.667 Q 271.094 7.813 266.992 7.813 A 34.258 34.258 0 0 0 261.675 8.205 Q 258.665 8.679 256.123 9.722 A 21.236 21.236 0 0 0 255.786 9.864 A 24.702 24.702 0 0 0 250.828 12.684 A 20.809 20.809 0 0 0 247.9 15.308 A 22.243 22.243 0 0 0 243.237 23.072 A 27.085 27.085 0 0 0 241.699 32.129 A 24.872 24.872 0 0 0 242.54 38.683 A 22.1 22.1 0 0 0 243.652 41.822 A 22.339 22.339 0 0 0 249.097 49.414 A 24.547 24.547 0 0 0 255.8 53.717 A 28.881 28.881 0 0 0 257.422 54.37 A 28.979 28.979 0 0 0 264.789 56.004 A 35.317 35.317 0 0 0 268.066 56.153 A 47.243 47.243 0 0 0 273.096 55.896 A 36.155 36.155 0 0 0 277.637 55.127 A 31.234 31.234 0 0 0 282.412 53.591 A 25.772 25.772 0 0 0 285.303 52.173 A 22.974 22.974 0 0 0 291.138 47.461 A 26.863 26.863 0 0 0 295.264 41.211 L 302.783 46.289 Q 298.242 54.981 289.526 59.473 A 37.575 37.575 0 0 1 280.374 62.697 Q 274.631 63.965 267.627 63.965 A 49.311 49.311 0 0 1 257.883 63.035 A 41.669 41.669 0 0 1 252.344 61.524 A 40.181 40.181 0 0 1 244.36 57.747 A 34.494 34.494 0 0 1 240.283 54.786 A 31.114 31.114 0 0 1 232.349 44.678 A 28.058 28.058 0 0 1 229.492 32.129 A 31.086 31.086 0 0 1 230.542 24.121 A 29.32 29.32 0 0 1 233.716 16.602 A 31.456 31.456 0 0 1 238.621 10.369 A 35.04 35.04 0 0 1 239.014 9.986 A 31.272 31.272 0 0 1 244.88 5.575 A 36.076 36.076 0 0 1 246.436 4.712 A 37.431 37.431 0 0 1 252.175 2.317 A 46.112 46.112 0 0 1 256.03 1.245 A 47.341 47.341 0 0 1 262.936 0.19 A 59.749 59.749 0 0 1 267.773 0 Q 271.191 0 274.561 0.537 Q 277.93 1.075 281.03 2.027 A 38.861 38.861 0 0 1 286.89 4.346 A 31.38 31.38 0 0 1 290.1 6.169 A 26.008 26.008 0 0 1 291.797 7.373 Z M 379.102 7.373 L 379.102 1.709 L 390.186 1.709 L 390.186 19.287 L 379.102 19.287 A 18.659 18.659 0 0 0 376.421 15.967 A 22.585 22.585 0 0 0 375 14.673 Q 372.461 12.549 369.238 11.036 Q 366.016 9.522 362.207 8.667 Q 358.398 7.813 354.297 7.813 A 34.258 34.258 0 0 0 348.98 8.205 Q 345.969 8.679 343.428 9.722 A 21.236 21.236 0 0 0 343.091 9.864 A 24.702 24.702 0 0 0 338.133 12.684 A 20.809 20.809 0 0 0 335.205 15.308 A 22.243 22.243 0 0 0 330.542 23.072 A 27.085 27.085 0 0 0 329.004 32.129 A 24.872 24.872 0 0 0 329.845 38.683 A 22.1 22.1 0 0 0 330.957 41.822 A 22.339 22.339 0 0 0 336.401 49.414 A 24.547 24.547 0 0 0 343.105 53.717 A 28.881 28.881 0 0 0 344.727 54.37 A 28.979 28.979 0 0 0 352.093 56.004 A 35.317 35.317 0 0 0 355.371 56.153 A 47.243 47.243 0 0 0 360.4 55.896 A 36.155 36.155 0 0 0 364.941 55.127 A 31.234 31.234 0 0 0 369.717 53.591 A 25.772 25.772 0 0 0 372.607 52.173 A 22.974 22.974 0 0 0 378.442 47.461 A 26.863 26.863 0 0 0 382.568 41.211 L 390.088 46.289 Q 385.547 54.981 376.831 59.473 A 37.575 37.575 0 0 1 367.678 62.697 Q 361.935 63.965 354.932 63.965 A 49.311 49.311 0 0 1 345.188 63.035 A 41.669 41.669 0 0 1 339.648 61.524 A 40.181 40.181 0 0 1 331.664 57.747 A 34.494 34.494 0 0 1 327.588 54.786 A 31.114 31.114 0 0 1 319.653 44.678 A 28.058 28.058 0 0 1 316.797 32.129 A 31.086 31.086 0 0 1 317.847 24.121 A 29.32 29.32 0 0 1 321.021 16.602 A 31.456 31.456 0 0 1 325.926 10.369 A 35.04 35.04 0 0 1 326.318 9.986 A 31.272 31.272 0 0 1 332.185 5.575 A 36.076 36.076 0 0 1 333.74 4.712 A 37.431 37.431 0 0 1 339.479 2.317 A 46.112 46.112 0 0 1 343.335 1.245 A 47.341 47.341 0 0 1 350.241 0.19 A 59.749 59.749 0 0 1 355.078 0 Q 358.496 0 361.865 0.537 Q 365.234 1.075 368.335 2.027 A 38.861 38.861 0 0 1 374.194 4.346 A 31.38 31.38 0 0 1 377.404 6.169 A 26.008 26.008 0 0 1 379.102 7.373 Z M 415.381 59.18 A 33.02 33.02 0 0 0 418.933 61.415 A 39.893 39.893 0 0 0 421.021 62.476 A 47.607 47.607 0 0 0 426.239 64.565 A 54.386 54.386 0 0 0 427.808 65.064 A 54.486 54.486 0 0 0 434.454 66.613 A 60.188 60.188 0 0 0 435.449 66.773 A 54.035 54.035 0 0 0 443.604 67.383 A 58.562 58.562 0 0 0 454.146 66.468 A 49.049 49.049 0 0 0 460.352 64.917 A 42 42 0 0 0 469.064 61.026 A 35.975 35.975 0 0 0 473.584 57.837 A 32.868 32.868 0 0 0 482.3 46.704 A 31.732 31.732 0 0 0 485.24 36.127 A 39.208 39.208 0 0 0 485.449 32.032 A 30.054 30.054 0 0 0 484.351 23.999 A 34.626 34.626 0 0 0 481.25 16.407 A 34.808 34.808 0 0 0 476.367 9.668 A 34.547 34.547 0 0 0 469.922 4.2 A 29.396 29.396 0 0 1 477.319 9.009 Q 480.566 11.914 482.813 15.528 A 29.978 29.978 0 0 1 486.23 23.34 Q 487.402 27.539 487.402 32.032 A 39.772 39.772 0 0 1 486.316 41.483 A 33.785 33.785 0 0 1 484.302 47.364 Q 481.201 54.248 475.464 59.107 A 38.461 38.461 0 0 1 466.064 64.918 A 47.251 47.251 0 0 1 461.646 66.602 A 52.822 52.822 0 0 1 451.099 68.836 A 67.563 67.563 0 0 1 443.604 69.239 A 59.022 59.022 0 0 1 435.413 68.697 A 43.359 43.359 0 0 1 427.246 66.773 A 29.803 29.803 0 0 1 418.92 62.39 A 27.048 27.048 0 0 1 415.381 59.18 Z M 86.719 62.5 L 86.719 54.688 L 100.391 54.688 L 100.391 9.522 L 87.207 9.522 L 87.207 1.709 L 125.049 1.709 L 125.049 9.522 L 111.475 9.522 L 111.475 54.688 L 124.561 54.688 L 124.561 62.5 L 86.719 62.5 Z M 407.202 20.435 A 30.682 30.682 0 0 1 414.795 9.864 Q 419.775 5.323 427.075 2.662 A 42.893 42.893 0 0 1 435.944 0.51 A 57.317 57.317 0 0 1 443.75 0 A 66.522 66.522 0 0 1 451.737 0.455 Q 455.719 0.937 459.159 1.931 A 38.489 38.489 0 0 1 460.718 2.417 A 38.176 38.176 0 0 1 467.111 5.2 A 29.122 29.122 0 0 1 472.632 9.131 Q 477.344 13.428 479.639 19.287 Q 481.934 25.147 481.934 32.032 A 30.678 30.678 0 0 1 479.528 44.168 A 29.824 29.824 0 0 1 479.37 44.532 A 29.079 29.079 0 0 1 471.924 54.663 A 32.831 32.831 0 0 1 464.637 59.498 A 41.796 41.796 0 0 1 459.888 61.475 Q 452.734 63.965 443.604 63.965 A 56.786 56.786 0 0 1 431.361 62.676 A 51.679 51.679 0 0 1 428.687 62.012 A 40.678 40.678 0 0 1 420.151 58.618 A 35.345 35.345 0 0 1 416.26 56.177 A 28.82 28.82 0 0 1 407.739 46.534 A 25.517 25.517 0 0 1 404.913 37.844 A 32.964 32.964 0 0 1 404.59 33.155 A 31.659 31.659 0 0 1 407.202 20.435 Z M 416.797 32.764 A 26.427 26.427 0 0 0 417.329 38.18 A 20.959 20.959 0 0 0 418.799 42.676 A 21.052 21.052 0 0 0 424.341 50.025 A 23.848 23.848 0 0 0 431.146 54.039 A 28.001 28.001 0 0 0 432.69 54.59 A 32.125 32.125 0 0 0 440.046 56.029 A 38.609 38.609 0 0 0 443.164 56.153 A 36.277 36.277 0 0 0 448.914 55.718 A 26.802 26.802 0 0 0 454.614 54.175 A 26.866 26.866 0 0 0 459.814 51.44 A 22.487 22.487 0 0 0 462.939 48.877 Q 466.309 45.557 468.018 41.187 A 24.915 24.915 0 0 0 469.727 32.032 A 28.781 28.781 0 0 0 469.147 26.149 A 23.748 23.748 0 0 0 467.896 22.022 A 21.176 21.176 0 0 0 462.671 14.38 Q 459.277 11.231 454.419 9.522 A 29.779 29.779 0 0 0 448.054 8.074 A 38.333 38.333 0 0 0 443.506 7.813 Q 437.646 7.813 432.739 9.595 Q 427.832 11.377 424.292 14.649 A 22.846 22.846 0 0 0 418.774 22.535 Q 416.797 27.149 416.797 32.764 Z M 421.565 25.241 A 22.091 22.091 0 0 1 421.851 24.463 Q 423.389 20.508 426.367 17.578 A 20.874 20.874 0 0 1 431.826 13.746 A 25.018 25.018 0 0 1 433.643 12.94 A 23.605 23.605 0 0 1 439.035 11.535 A 31.516 31.516 0 0 1 443.506 11.231 A 28.514 28.514 0 0 1 449.213 11.778 A 22.171 22.171 0 0 1 454.297 13.453 A 21.611 21.611 0 0 1 462.207 19.825 A 34.238 34.238 0 0 0 457.981 16.841 A 24.724 24.724 0 0 0 453.052 14.576 Q 448.486 13.086 443.506 13.086 Q 438.477 13.086 434.521 14.649 Q 430.566 16.211 427.856 18.921 Q 425.146 21.631 423.706 25.245 A 20.509 20.509 0 0 0 422.266 32.911 A 17.236 17.236 0 0 0 423.389 39.087 A 19.401 19.401 0 0 0 426.611 44.58 A 23.057 23.057 0 0 0 430.603 48.352 A 26.629 26.629 0 0 0 431.689 49.121 A 29.63 29.63 0 0 0 436.375 51.671 A 35.14 35.14 0 0 0 438.428 52.491 A 27.291 27.291 0 0 1 433.84 51.374 A 22.202 22.202 0 0 1 430.688 50.025 A 20.999 20.999 0 0 1 426.791 47.411 A 18.141 18.141 0 0 1 425 45.655 A 18.204 18.204 0 0 1 421.509 39.82 Q 420.313 36.573 420.313 32.911 A 23.271 23.271 0 0 1 421.565 25.241 Z M 2.93 65.918 L 14.502 65.918 L 14.502 61.084 Q 20.361 64.161 26.758 65.772 A 52.093 52.093 0 0 0 34.386 67.075 A 66.735 66.735 0 0 0 40.918 67.383 A 50.797 50.797 0 0 0 52.344 66.114 A 37.107 37.107 0 0 0 58.466 64.159 A 30.776 30.776 0 0 0 62.158 62.305 A 21.664 21.664 0 0 0 67.452 57.974 A 19.927 19.927 0 0 0 69.043 55.909 A 15.275 15.275 0 0 0 71.536 48.808 A 19.305 19.305 0 0 0 71.631 46.875 A 25.73 25.73 0 0 0 71.445 43.714 A 20.028 20.028 0 0 0 70.972 41.187 A 12.839 12.839 0 0 0 69.842 38.336 A 17.592 17.592 0 0 0 68.359 36.036 A 10.321 10.321 0 0 1 70.356 37.905 A 11.575 11.575 0 0 1 70.483 38.062 Q 71.436 39.258 72.119 40.699 Q 72.803 42.139 73.193 43.726 Q 73.584 45.313 73.584 46.875 A 19.139 19.139 0 0 1 72.779 52.513 A 16.643 16.643 0 0 1 71.021 56.397 Q 68.457 60.547 64.014 63.404 A 31.795 31.795 0 0 1 57.868 66.44 A 40.242 40.242 0 0 1 53.613 67.749 A 50.45 50.45 0 0 1 44.211 69.146 A 59.146 59.146 0 0 1 40.869 69.239 Q 33.505 69.239 27.67 68.006 A 46.262 46.262 0 0 1 27.271 67.92 A 51.686 51.686 0 0 1 20.935 66.113 A 41.407 41.407 0 0 1 16.553 64.258 L 16.553 67.774 L 2.93 67.774 L 2.93 65.918 Z M 147.656 65.918 L 159.229 65.918 L 159.229 61.084 Q 165.088 64.161 171.484 65.772 A 52.093 52.093 0 0 0 179.113 67.075 A 66.735 66.735 0 0 0 185.645 67.383 A 50.797 50.797 0 0 0 197.07 66.114 A 37.107 37.107 0 0 0 203.192 64.159 A 30.776 30.776 0 0 0 206.885 62.305 A 21.664 21.664 0 0 0 212.179 57.974 A 19.927 19.927 0 0 0 213.77 55.909 A 15.275 15.275 0 0 0 216.263 48.808 A 19.305 19.305 0 0 0 216.357 46.875 A 25.73 25.73 0 0 0 216.171 43.714 A 20.028 20.028 0 0 0 215.698 41.187 A 12.839 12.839 0 0 0 214.569 38.336 A 17.592 17.592 0 0 0 213.086 36.036 A 10.321 10.321 0 0 1 215.083 37.905 A 11.575 11.575 0 0 1 215.21 38.062 Q 216.162 39.258 216.846 40.699 Q 217.529 42.139 217.92 43.726 Q 218.311 45.313 218.311 46.875 A 19.139 19.139 0 0 1 217.505 52.513 A 16.643 16.643 0 0 1 215.747 56.397 Q 213.184 60.547 208.74 63.404 A 31.795 31.795 0 0 1 202.595 66.44 A 40.242 40.242 0 0 1 198.34 67.749 A 50.45 50.45 0 0 1 188.937 69.146 A 59.146 59.146 0 0 1 185.596 69.239 Q 178.231 69.239 172.396 68.006 A 46.262 46.262 0 0 1 171.997 67.92 A 51.686 51.686 0 0 1 165.662 66.113 A 41.407 41.407 0 0 1 161.279 64.258 L 161.279 67.774 L 147.656 67.774 L 147.656 65.918 Z M 603.711 65.918 L 676.904 65.918 L 676.904 46.192 L 678.857 46.192 L 678.857 67.774 L 603.711 67.774 L 603.711 65.918 Z M 539.893 65.918 L 549.121 65.918 L 579.15 12.94 L 591.797 12.94 L 591.797 4.2 L 593.75 4.2 L 593.75 14.795 L 580.371 14.795 L 550.342 67.774 L 540.918 67.774 L 539.893 65.918 Z M 245.908 26.438 A 19.627 19.627 0 0 1 246.826 23.731 A 19.589 19.589 0 0 1 251.343 17.139 A 20.473 20.473 0 0 1 257.47 13.123 A 23.68 23.68 0 0 1 258.276 12.793 A 23.163 23.163 0 0 1 264.436 11.361 A 28.368 28.368 0 0 1 267.187 11.231 A 35.111 35.111 0 0 1 272.846 11.665 A 25.853 25.853 0 0 1 278.442 13.208 Q 283.301 15.186 286.23 18.848 Q 281.982 15.87 277.222 14.478 A 34.975 34.975 0 0 0 269.682 13.173 A 41.002 41.002 0 0 0 266.992 13.086 A 24.387 24.387 0 0 0 262.348 13.51 A 19.366 19.366 0 0 0 258.667 14.6 A 19.825 19.825 0 0 0 254.324 17.03 A 17.396 17.396 0 0 0 252.417 18.677 A 17.375 17.375 0 0 0 248.511 24.634 Q 247.168 28.028 247.168 31.787 A 23.627 23.627 0 0 0 247.599 36.373 A 20.38 20.38 0 0 0 248.169 38.599 Q 249.17 41.748 251.343 44.385 A 20.314 20.314 0 0 0 254.288 47.271 A 26.695 26.695 0 0 0 256.982 49.17 A 31.617 31.617 0 0 0 260.565 51.066 Q 262.437 51.917 264.613 52.659 A 54.416 54.416 0 0 0 265.43 52.93 A 30.649 30.649 0 0 1 260.026 51.698 A 25.876 25.876 0 0 1 257.104 50.537 Q 253.369 48.78 250.732 46.094 Q 248.096 43.409 246.655 39.869 A 19.697 19.697 0 0 1 245.294 34.033 A 23.683 23.683 0 0 1 245.215 32.08 A 22.32 22.32 0 0 1 245.908 26.438 Z M 333.213 26.438 A 19.627 19.627 0 0 1 334.131 23.731 A 19.589 19.589 0 0 1 338.647 17.139 A 20.473 20.473 0 0 1 344.774 13.123 A 23.68 23.68 0 0 1 345.581 12.793 A 23.163 23.163 0 0 1 351.741 11.361 A 28.368 28.368 0 0 1 354.492 11.231 A 35.111 35.111 0 0 1 360.151 11.665 A 25.853 25.853 0 0 1 365.747 13.208 Q 370.605 15.186 373.535 18.848 Q 369.287 15.87 364.526 14.478 A 34.975 34.975 0 0 0 356.987 13.173 A 41.002 41.002 0 0 0 354.297 13.086 A 24.387 24.387 0 0 0 349.653 13.51 A 19.366 19.366 0 0 0 345.972 14.6 A 19.825 19.825 0 0 0 341.628 17.03 A 17.396 17.396 0 0 0 339.722 18.677 A 17.375 17.375 0 0 0 335.815 24.634 Q 334.473 28.028 334.473 31.787 A 23.627 23.627 0 0 0 334.904 36.373 A 20.38 20.38 0 0 0 335.474 38.599 Q 336.475 41.748 338.647 44.385 A 20.314 20.314 0 0 0 341.592 47.271 A 26.695 26.695 0 0 0 344.287 49.17 A 31.617 31.617 0 0 0 347.87 51.066 Q 349.742 51.917 351.918 52.659 A 54.416 54.416 0 0 0 352.734 52.93 A 30.649 30.649 0 0 1 347.331 51.698 A 25.876 25.876 0 0 1 344.409 50.537 Q 340.674 48.78 338.037 46.094 Q 335.4 43.409 333.96 39.869 A 19.697 19.697 0 0 1 332.599 34.033 A 23.683 23.683 0 0 1 332.52 32.08 A 22.32 22.32 0 0 1 333.213 26.438 Z M 304.102 51.075 Q 301.904 54.981 298.291 58.033 A 31.362 31.362 0 0 1 296.355 59.541 A 35.262 35.262 0 0 1 289.966 63.16 A 43.092 43.092 0 0 1 286.617 64.468 A 50.599 50.599 0 0 1 279.614 66.309 A 57.911 57.911 0 0 1 276.756 66.779 A 65.523 65.523 0 0 1 267.725 67.383 A 48.434 48.434 0 0 1 267.284 67.381 A 52.538 52.538 0 0 1 260.522 66.87 A 55.274 55.274 0 0 1 253.394 65.406 A 54.391 54.391 0 0 1 253.179 65.346 A 49.818 49.818 0 0 1 246.851 63.111 A 37.218 37.218 0 0 1 244.282 61.884 A 28.704 28.704 0 0 1 241.406 60.157 A 18.507 18.507 0 0 0 242.627 61.399 A 20.863 20.863 0 0 0 246.362 64.136 Q 249.268 65.821 252.71 66.968 Q 256.152 68.116 259.961 68.677 Q 263.77 69.239 267.627 69.239 A 75.716 75.716 0 0 0 271.153 69.158 A 64.782 64.782 0 0 0 280.347 68.091 A 56.186 56.186 0 0 0 284.156 67.225 A 46.357 46.357 0 0 0 291.235 64.746 Q 296.143 62.549 299.854 59.351 Q 303.564 56.153 305.811 52.1 L 304.102 51.075 Z M 391.406 51.075 Q 389.209 54.981 385.596 58.033 A 31.362 31.362 0 0 1 383.66 59.541 A 35.262 35.262 0 0 1 377.271 63.16 A 43.092 43.092 0 0 1 373.921 64.468 A 50.599 50.599 0 0 1 366.919 66.309 A 57.911 57.911 0 0 1 364.061 66.779 A 65.523 65.523 0 0 1 355.029 67.383 A 48.434 48.434 0 0 1 354.589 67.381 A 52.538 52.538 0 0 1 347.827 66.87 A 55.274 55.274 0 0 1 340.698 65.406 A 54.391 54.391 0 0 1 340.483 65.346 A 49.818 49.818 0 0 1 334.155 63.111 A 37.218 37.218 0 0 1 331.587 61.884 A 28.704 28.704 0 0 1 328.711 60.157 A 18.507 18.507 0 0 0 329.932 61.399 A 20.863 20.863 0 0 0 333.667 64.136 Q 336.572 65.821 340.015 66.968 Q 343.457 68.116 347.266 68.677 Q 351.074 69.239 354.932 69.239 A 75.716 75.716 0 0 0 358.458 69.158 A 64.782 64.782 0 0 0 367.651 68.091 A 56.186 56.186 0 0 0 371.461 67.225 A 46.357 46.357 0 0 0 378.54 64.746 Q 383.447 62.549 387.158 59.351 Q 390.869 56.153 393.115 52.1 L 391.406 51.075 Z M 114.99 51.758 L 114.99 12.94 L 128.516 12.94 L 128.516 4.151 L 130.469 4.151 L 130.469 14.795 L 116.943 14.795 L 116.943 51.758 L 114.99 51.758 Z M 793.359 51.758 L 793.359 12.94 L 806.543 12.94 L 806.543 4.151 L 808.496 4.151 L 808.496 14.795 L 795.313 14.795 L 795.313 51.758 L 793.359 51.758 Z M 542.676 45.752 L 525.049 12.94 L 536.719 12.94 L 536.719 4.2 L 538.672 4.2 L 538.672 14.795 L 528.271 14.795 L 543.848 43.75 L 542.676 45.752 Z M 3.369 28.418 A 21.251 21.251 0 0 0 7.251 32.276 Q 9.473 33.985 12.622 35.303 Q 15.562 36.534 19.439 37.467 A 63.922 63.922 0 0 0 19.995 37.598 A 69.473 69.473 0 0 0 23.967 38.387 Q 26.697 38.852 29.883 39.209 A 227.749 227.749 0 0 1 33.798 39.692 Q 36.874 40.1 39.331 40.528 A 75.459 75.459 0 0 1 42.037 41.046 Q 43.26 41.305 44.314 41.58 A 34.287 34.287 0 0 1 45.85 42.017 A 21.465 21.465 0 0 1 47.35 42.542 Q 48.872 43.143 49.829 43.848 Q 51.221 44.873 51.709 46.241 A 24.553 24.553 0 0 0 48.706 44.751 Q 47.558 44.275 45.939 43.824 A 43.383 43.383 0 0 0 44.629 43.482 A 51.891 51.891 0 0 0 42.629 43.037 Q 41.694 42.847 40.631 42.659 A 112.278 112.278 0 0 0 38.379 42.286 A 170.576 170.576 0 0 0 36.377 41.986 Q 33.402 41.559 29.47 41.084 A 478.02 478.02 0 0 0 28.906 41.016 A 89.254 89.254 0 0 1 23.582 40.211 Q 21.093 39.754 18.905 39.18 A 52.945 52.945 0 0 1 18.286 39.014 Q 13.672 37.745 10.474 36.109 A 22.681 22.681 0 0 1 8.191 34.779 Q 6.579 33.701 5.493 32.495 A 10.173 10.173 0 0 1 4.292 30.884 Q 3.573 29.673 3.369 28.418 Z M 148.096 28.418 A 21.251 21.251 0 0 0 151.978 32.276 Q 154.199 33.985 157.349 35.303 Q 160.289 36.534 164.165 37.467 A 63.922 63.922 0 0 0 164.722 37.598 A 69.473 69.473 0 0 0 168.693 38.387 Q 171.423 38.852 174.609 39.209 A 227.749 227.749 0 0 1 178.524 39.692 Q 181.601 40.1 184.058 40.528 A 75.459 75.459 0 0 1 186.763 41.046 Q 187.987 41.305 189.04 41.58 A 34.287 34.287 0 0 1 190.576 42.017 A 21.465 21.465 0 0 1 192.077 42.542 Q 193.599 43.143 194.556 43.848 Q 195.947 44.873 196.436 46.241 A 24.553 24.553 0 0 0 193.433 44.751 Q 192.285 44.275 190.665 43.824 A 43.383 43.383 0 0 0 189.355 43.482 A 51.891 51.891 0 0 0 187.356 43.037 Q 186.42 42.847 185.358 42.659 A 112.278 112.278 0 0 0 183.105 42.286 A 170.576 170.576 0 0 0 181.104 41.986 Q 178.129 41.559 174.197 41.084 A 478.02 478.02 0 0 0 173.633 41.016 A 89.254 89.254 0 0 1 168.308 40.211 Q 165.82 39.754 163.632 39.18 A 52.945 52.945 0 0 1 163.013 39.014 Q 158.398 37.745 155.2 36.109 A 22.681 22.681 0 0 1 152.918 34.779 Q 151.306 33.701 150.22 32.495 A 10.173 10.173 0 0 1 149.019 30.884 Q 148.3 29.673 148.096 28.418 Z M 750.146 62.5 L 754.932 62.5 L 776.514 21.289 L 776.514 25.342 L 756.201 64.356 L 751.172 64.356 L 750.146 62.5 Z M 89.648 65.918 L 128.076 65.918 L 128.076 57.422 L 130.029 57.422 L 130.029 67.774 L 89.648 67.774 L 89.648 65.918 Z M 770.557 65.918 L 806.543 65.918 L 806.543 57.422 L 808.496 57.422 L 808.496 67.774 L 770.557 67.774 L 770.557 65.918 Z M 698.291 65.918 L 734.277 65.918 L 734.277 57.422 L 736.23 57.422 L 736.23 67.774 L 698.291 67.774 L 698.291 65.918 Z M 628.955 51.758 L 628.955 38.282 L 653.418 38.282 L 653.418 31.202 L 655.371 31.202 L 655.371 40.137 L 630.908 40.137 L 630.908 51.758 L 628.955 51.758 Z M 628.955 25.83 L 628.955 12.94 L 660.352 12.94 L 660.352 14.795 L 630.908 14.795 L 630.908 25.83 L 628.955 25.83 Z M 750.684 36.133 L 732.617 4.2 L 734.766 4.2 L 751.807 34.082 L 750.684 36.133 Z M 665.332 26.026 L 665.332 24.17 L 676.904 24.17 L 676.904 4.151 L 678.857 4.151 L 678.857 26.026 L 665.332 26.026 Z M 58.35 24.561 L 58.35 22.705 L 69.922 22.705 L 69.922 4.2 L 71.973 4.2 L 71.973 24.561 L 58.35 24.561 Z M 203.076 24.561 L 203.076 22.705 L 214.648 22.705 L 214.648 4.2 L 216.699 4.2 L 216.699 24.561 L 203.076 24.561 Z M 294.727 24.561 L 294.727 22.705 L 306.396 22.705 L 306.396 4.2 L 308.35 4.2 L 308.35 24.561 L 294.727 24.561 Z M 382.031 24.561 L 382.031 22.705 L 393.701 22.705 L 393.701 4.2 L 395.654 4.2 L 395.654 24.561 L 382.031 24.561 Z M 723.047 51.758 L 723.047 21.875 L 725 25.342 L 725 51.758 L 723.047 51.758 Z M 19.594 14.573 Q 19.803 14.284 20.119 14.015 A 4.252 4.252 0 0 1 20.239 13.916 A 6.468 6.468 0 0 1 21.204 13.294 Q 21.706 13.025 22.317 12.789 A 14.022 14.022 0 0 1 23.145 12.5 A 21.108 21.108 0 0 1 24.894 12.034 Q 26.1 11.765 27.515 11.573 A 37.243 37.243 0 0 1 30.733 11.283 A 46.204 46.204 0 0 1 32.959 11.231 A 24.928 24.928 0 0 1 38.507 11.83 A 21.737 21.737 0 0 1 41.187 12.622 A 23.061 23.061 0 0 1 44.45 14.104 A 17.109 17.109 0 0 1 47.461 16.211 A 32.738 32.738 0 0 0 46.008 15.631 A 43.53 43.53 0 0 0 44.385 15.064 A 48.61 48.61 0 0 0 41.379 14.186 A 54.285 54.285 0 0 0 40.796 14.038 Q 38.916 13.575 36.938 13.306 A 28.829 28.829 0 0 0 33.057 13.037 A 54.972 54.972 0 0 0 29.62 13.138 Q 26.551 13.331 24.292 13.892 Q 20.85 14.746 19.189 15.772 A 2.012 2.012 0 0 1 19.594 14.573 Z M 164.321 14.573 Q 164.529 14.284 164.845 14.015 A 4.252 4.252 0 0 1 164.966 13.916 A 6.468 6.468 0 0 1 165.93 13.294 Q 166.433 13.025 167.044 12.789 A 14.022 14.022 0 0 1 167.871 12.5 A 21.108 21.108 0 0 1 169.621 12.034 Q 170.827 11.765 172.241 11.573 A 37.243 37.243 0 0 1 175.46 11.283 A 46.204 46.204 0 0 1 177.686 11.231 A 24.928 24.928 0 0 1 183.234 11.83 A 21.737 21.737 0 0 1 185.913 12.622 A 23.061 23.061 0 0 1 189.176 14.104 A 17.109 17.109 0 0 1 192.187 16.211 A 32.738 32.738 0 0 0 190.735 15.631 A 43.53 43.53 0 0 0 189.111 15.064 A 48.61 48.61 0 0 0 186.106 14.186 A 54.285 54.285 0 0 0 185.522 14.038 Q 183.643 13.575 181.665 13.306 A 28.829 28.829 0 0 0 177.783 13.037 A 54.972 54.972 0 0 0 174.346 13.138 Q 171.278 13.331 169.019 13.892 Q 165.576 14.746 163.916 15.772 A 2.012 2.012 0 0 1 164.321 14.573 Z M 90.137 14.795 L 90.137 12.94 L 98.34 12.94 L 98.34 14.795 L 90.137 14.795 Z M 603.711 14.795 L 603.711 12.94 L 611.914 12.94 L 611.914 14.795 L 603.711 14.795 Z M 698.291 14.795 L 698.291 12.94 L 706.494 12.94 L 706.494 14.795 L 698.291 14.795 Z M 497.412 14.795 L 505.42 14.795 L 504.346 14.795 L 497.412 12.94 L 497.412 14.795 Z M 554.736 14.795 L 554.736 12.94 L 560.986 12.94 L 559.961 14.795 L 554.736 14.795 Z" vector-effect="non-scaling-stroke"/></g></svg>